<?xml version="1.0" encoding="UTF-8"?>
<svg id="Layer_1" data-name="Layer 1" xmlns="http://www.w3.org/2000/svg" viewBox="0 0 991.28 1080.32">
  <defs>
    <style>
      .cls-1 {
        fill: #e7191e;
      }

      .cls-2 {
        fill: #fafafa;
      }
    </style>
  </defs>
  <rect class="cls-1" y="0" width="991.28" height="1080.32"/>
  <g>
    <path class="cls-2" d="M218.66,520.46h86l-88.5,165.61,93.5,238.19h-81l-59.5-151.81-18.5,34.76v117.05h-75v-403.8h75v60.31c0,9.54-.34,19.77-1,30.67-.67,10.91-1.67,21.9-3,32.97-1.34,11.08-3,21.9-5,32.46-2,10.57-4.17,20.45-6.5,29.65h1c2.33-9.2,5.25-18.99,8.75-29.39,3.5-10.39,7.25-20.7,11.25-30.92s8.25-20.19,12.75-29.9,8.91-18.82,13.25-27.35l36.5-68.49Z"/>
    <path class="cls-2" d="M312.16,520.46h75v403.8h-75v-403.8Z"/>
    <path class="cls-2" d="M541.65,520.46h75v403.8h-75l-47.5-153.85c-2.67-8.86-5.42-18.48-8.25-28.88-2.84-10.39-5.5-20.96-8-31.69s-4.75-21.38-6.75-31.95c-2-10.56-3.67-20.45-5-29.65l-1,.51c1.33,9.2,2.58,19.17,3.75,29.9,1.16,10.73,2.16,21.56,3,32.46.83,10.91,1.5,21.64,2,32.2.5,10.57.75,20.62.75,30.16v150.79h-75v-403.8h75l47.5,153.85c2.66,8.86,5.41,18.49,8.25,28.88,2.83,10.4,5.5,20.96,8,31.69s4.75,21.39,6.75,31.95c2,10.57,3.66,20.45,5,29.65l1-.51c-1.34-9.2-2.59-19.17-3.75-29.9-1.17-10.73-2.17-21.55-3-32.46-.84-10.9-1.5-21.63-2-32.2-.5-10.56-.75-20.61-.75-30.16v-150.79Z"/>
    <path class="cls-2" d="M629.15,520.46h104c65,0,97.5,37.66,97.5,112.96v177.88c0,75.31-32.5,112.96-97.5,112.96h-104v-403.8ZM730.65,850.15c7.66,0,13.75-3.15,18.25-9.46,4.5-6.3,6.75-15.08,6.75-26.32v-181.96c0-11.92-2.25-21.21-6.75-27.86-4.5-6.64-10.59-9.97-18.25-9.97h-26.5v255.57h26.5Z"/>
    <path class="cls-2" d="M840.65,520.46h75v403.8h-75v-403.8Z"/>
  </g>
  <g>
    <path class="cls-2" d="M126.41,107.11h119.5l50,403.8h-76l-9-73.09h-49.5l-9,73.09h-76L126.41,107.11ZM197.66,281.61c-2.34-17.38-4.17-37.57-5.5-60.57-1.34-23-2-45.24-2-66.7h-1c0,9.89-.17,20.37-.5,31.44-.34,11.08-.92,22.23-1.75,33.48-.84,11.25-1.75,22.15-2.75,32.71-1,10.57-2,20.45-3,29.65l-7.5,58.27h31.5l-7.5-58.27Z"/>
    <path class="cls-2" d="M312.15,106.02h75v329.68h75.5v74.12h-150.5V106.02Z"/>
  </g>
</svg>