<?xml version="1.0" encoding="UTF-8"?>
<svg id="Layer_1" data-name="Layer 1" xmlns="http://www.w3.org/2000/svg" viewBox="0 0 1490.85 683.86">
  <defs>
    <style>
      .cls-1 {
        fill: #d3d3d3;
      }
    </style>
  </defs>
  <g>
    <path class="cls-1" d="M693.14,65.28h86l-88.5,196.41,93.5,282.49h-81l-59.5-180.04-18.5,41.22v138.82h-75V65.28h75v71.53c0,11.32-.34,23.44-1,36.37-.67,12.94-1.67,25.97-3,39.1-1.34,13.14-3,25.97-5,38.49-2,12.53-4.17,24.25-6.5,35.16h1c2.33-10.91,5.25-22.52,8.75-34.86,3.5-12.32,7.25-24.55,11.25-36.68s8.25-23.94,12.75-35.46,8.91-22.33,13.25-32.43l36.5-81.23Z"/>
    <path class="cls-1" d="M786.64,65.28h75v478.9h-75V65.28Z"/>
    <path class="cls-1" d="M1016.14,65.28h75v478.9h-75l-47.5-182.47c-2.67-10.5-5.42-21.92-8.25-34.25-2.84-12.32-5.5-24.85-8-37.59s-4.75-25.36-6.75-37.89c-2-12.52-3.67-24.25-5-35.16l-1,.61c1.33,10.91,2.58,22.73,3.75,35.46,1.16,12.73,2.16,25.57,3,38.49.83,12.94,1.5,25.67,2,38.19.5,12.53.75,24.46.75,35.77v178.83h-75V65.28h75l47.5,182.47c2.66,10.51,5.41,21.93,8.25,34.25,2.83,12.33,5.5,24.85,8,37.58s4.75,25.37,6.75,37.89c2,12.53,3.66,24.25,5,35.16l1-.61c-1.34-10.91-2.59-22.73-3.75-35.46-1.17-12.73-2.17-25.56-3-38.49-.84-12.93-1.5-25.66-2-38.19-.5-12.52-.75-24.45-.75-35.77V65.28Z"/>
    <path class="cls-1" d="M1103.63,65.28h104c65,0,97.5,44.66,97.5,133.97v210.96c0,89.32-32.5,133.97-97.5,133.97h-104V65.28ZM1205.13,456.28c7.66,0,13.75-3.73,18.25-11.21,4.5-7.47,6.75-17.88,6.75-31.22v-215.81c0-14.14-2.25-25.16-6.75-33.04-4.5-7.88-10.59-11.82-18.25-11.82h-26.5v303.1h26.5Z"/>
    <path class="cls-1" d="M1315.14,65.28h75v478.9h-75V65.28Z"/>
    <path class="cls-1" d="M568.38,310.54l51.98,54.07-180.86,173.85-51.98-54.07,180.86-173.85Z"/>
  </g>
  <g>
    <path class="cls-1" d="M103.73,66.89h119.5l50,472.36h-76l-9-85.5h-49.5l-9,85.5H53.73L103.73,66.89ZM174.98,271.02c-2.34-20.33-4.17-43.95-5.5-70.85-1.34-26.91-2-52.92-2-78.03h-1c0,11.57-.17,23.82-.5,36.77-.34,12.96-.92,26.01-1.75,39.16-.84,13.15-1.75,25.92-2.75,38.27-1,12.36-2,23.92-3,34.68l-7.5,68.16h31.5l-7.5-68.16Z"/>
    <path class="cls-1" d="M289.48,65.63h75v385.66h75.5v86.7h-150.5V65.63Z"/>
  </g>
</svg>